<svg width="463" height="158" fill="none" xmlns="http://www.w3.org/2000/svg"><g clip-path="url(#clip0)" fill-rule="evenodd" clip-rule="evenodd"><path d="M187.625 157.404c-7.255 1.291-13.317.397-16.298-2.284-2.584-2.185-3.677-5.065-3.677-9.236v-20.855h-6.46v-8.242h3.975c1.889 0 2.684-.993 2.684-2.88v-8.64l10.136-2.582v10.527c0 1.986-.994 3.078-2.186 3.476v.099l11.528.099v8.243h-9.342v18.769c0 5.363 3.081 6.554 9.64 5.859v7.647zm-69.664-40.617v39.922h10.335v-23.238c0-6.455 3.876-10.527 9.143-10.527 5.367 0 8.05 3.575 8.05 9.931v23.933h10.136v-23.536c0-11.42-5.366-17.677-15.403-17.578-4.969 0-9.342 2.384-11.926 5.86l-1.391 1.688-.199-.199.299-.794c.894-1.589 1.093-2.781 1.192-4.171v-1.291h-10.236zm-47.403 21.252v-2.582c0-11.321 8.447-19.663 20.273-19.763 12.025.1 20.372 8.144 20.372 19.763v3.277h-30.41v.695c0 6.257 3.877 11.222 10.038 11.222 4.373 0 7.85-2.681 9.441-7.349h10.236c-1.988 9.137-9.441 14.599-19.677 14.599-12.124.099-20.273-8.044-20.273-19.862zm30.211-5.462c-.795-5.76-4.67-9.534-9.839-9.534-5.167 0-9.242 3.675-10.037 9.534h19.876zM0 156.709v-40.021h10.236v1.092c-.1 1.49-.298 2.681-1.193 4.27l-.298.795.199.198 1.391-1.688c2.584-3.476 7.056-5.561 11.528-5.561 6.162 0 10.534 2.383 13.019 6.653h.298c2.981-4.369 7.95-6.653 13.515-6.653 9.739 0 15.205 6.157 15.205 17.279v23.835H53.565v-24.232c0-5.362-2.386-9.633-7.653-9.633-4.77 0-8.844 3.873-8.844 10.13v23.635H26.832v-24.231c0-5.363-2.485-9.633-7.652-9.633-4.87 0-8.944 3.873-8.944 10.129v23.636H0zm191.6-21.153v2.384c0 11.917 8.149 20.06 20.273 19.961 12.223 0 20.273-7.945 20.273-19.961v-2.384c0-11.619-8.348-19.762-20.273-19.862-11.826.1-20.273 8.442-20.273 19.862zm30.211-1.092v4.667c0 6.257-3.677 11.52-9.839 11.52-6.161 0-10.037-5.263-10.037-11.52v-4.667c0-6.356 3.876-11.52 10.037-11.52 5.963 0 9.839 5.164 9.839 11.52zm16.596 22.344v-40.021h10.236v1.39c0 1.788-.199 3.079-.994 4.866l-.497.993.199.199 1.192-1.788c1.491-2.482 3.876-4.667 6.659-5.66 1.49-.596 3.08-.993 4.77-.993h2.484v8.838l-4.174-.099c-6.658-.099-9.739 5.263-9.739 11.321v20.954h-10.136zm30.807-40.12v40.021h10.335v-23.636c0-6.256 4.074-10.129 8.944-10.129 5.168 0 7.652 4.27 7.652 9.633v24.231h10.236v-23.635c0-6.257 4.074-10.13 8.845-10.13 5.267 0 7.652 4.271 7.652 9.633v24.232h10.236v-23.835c0-11.122-5.466-17.279-15.205-17.279-5.565 0-10.534 2.284-13.516 6.653h-.298c-2.484-4.27-6.857-6.653-13.018-6.653-4.472 0-8.944 2.085-11.528 5.561l-1.391 1.688-.199-.198.298-.795c.895-1.589 1.093-2.78 1.193-4.27v-1.092h-10.236zm69.862 29.891c0-7.944 5.963-11.321 14.509-12.81l10.534-1.689c1.392-.198 2.187-.993 2.187-1.986v-.496c0-3.079-3.081-5.562-7.553-5.562-3.975 0-7.155 1.887-8.05 5.065h-10.136c.795-7.349 8.049-13.307 18.583-13.307 10.634 0 17.888 5.164 17.888 13.704v27.41h-9.44v-1.689c0-1.489.298-2.681.993-4.27l.597-1.291-.199-.099-1.491 2.185c-2.981 4.468-9.043 6.355-14.41 6.355-8.347-.099-14.012-4.965-14.012-11.52zm27.23-3.575v-4.965l-10.534 1.887c-4.373.794-6.361 2.383-6.361 5.76 0 2.88 2.882 4.866 6.758 4.866 5.168.099 10.137-3.079 10.137-7.548zm46.409-7.547v2.582c0 11.818 8.149 19.961 20.372 19.862 10.236 0 17.69-5.462 19.677-14.599h-10.236c-1.59 4.668-5.068 7.349-9.441 7.349-6.161 0-10.037-4.965-10.037-11.222v-.695h30.31v-3.277c0-11.619-8.347-19.663-20.372-19.763-11.826.1-20.273 8.442-20.273 19.763zm20.472-12.414c5.167 0 9.043 3.774 9.838 9.534H423.15c.795-5.859 4.869-9.534 10.037-9.534zm-24.447 34.361c-7.255 1.291-13.317.397-16.298-2.284-2.584-2.185-3.677-5.065-3.677-9.236v-20.855h-6.46v-8.242h3.976c1.888 0 2.683-.993 2.683-2.88v-8.64l10.136-2.582v10.527c0 1.986-.994 3.078-2.186 3.476v.099l11.528.099v8.243H399.1v18.769c0 5.363 3.081 6.554 9.64 5.859v7.647zm44.422-40.518v.894h1.49v3.972h1.093v-3.972h1.491v-.894h-4.074zm5.366 4.866v-3.773l1.193 3.773h.795l1.391-3.773v3.773H463v-4.866h-1.391l-1.392 3.873-1.391-3.873h-1.391v4.866h1.093z" fill="#000"/><path d="M291.176 9.236c-.298-3.973-2.782-7.448-6.261-9.236-3.577 1.788-6.062 5.462-6.26 9.534v1.589c.298 4.071 2.782 7.547 6.26 9.335 3.479-1.689 5.864-5.164 6.261-9.236V9.236zm15.503 6.157V7.05l-1.292 1.192-19.975 19.96c-.994.994-1.789 2.185-2.385 3.476-.596 1.39-.994 2.98-.994 4.668 0 2.98 1.094 5.561 2.882 7.647l16.398-16.287.198-.198a17.614 17.614 0 005.168-12.116zm17.292 11.42l1.292-1.191v-.199h-7.851c-1.193 0-2.385.199-3.578.397l-2.087.596c-.099.05-.223.1-.347.149h-.001c-.124.05-.248.1-.347.149l-2.385 1.192c-.047.023-.1.047-.155.071-.179.08-.389.174-.541.326-.199 0-.298.1-.398.199-.596.397-1.192.794-1.689 1.29l-.596.596-.298.298-.199.199-.199.199-5.366 5.362 1.292 1.291 1.689 1.688c2.484 2.583 6.559 2.583 9.143 0l12.621-12.612zM258.183 47.37c-1.789 3.476-5.267 5.959-9.242 6.257h-1.988c-4.074-.398-7.553-2.781-9.242-6.257 1.789-3.476 5.267-5.958 9.341-6.256h1.59c4.075.1 7.653 2.681 9.541 6.256zm64.893 6.257c3.975-.298 7.454-2.781 9.242-6.257-1.888-3.575-5.465-6.157-9.54-6.256h-1.59c-4.074.298-7.553 2.78-9.341 6.256 1.689 3.476 5.167 5.86 9.242 6.257h1.987zm-38.161 20.457c3.479 1.788 5.963 5.264 6.261 9.236v1.986c-.397 4.072-2.782 7.548-6.261 9.236-3.478-1.788-5.962-5.264-6.26-9.335v-1.589c.198-4.072 2.683-7.746 6.26-9.534zm-40.347-48.462h8.348a17.638 17.638 0 0112.124 5.164l.199.198 16.297 16.386c-2.086 1.788-4.67 2.88-7.652 2.88-1.689 0-3.279-.397-4.67-.993-1.292-.596-2.485-1.39-3.479-2.383l-19.875-20.06-1.292-1.192zm19.876-17.28l-1.292-1.291h-.1v7.845c0 1.192.199 2.384.398 3.575l.596 2.086c.05.1.099.223.149.347.05.125.099.249.149.348l1.193 2.383c.023.047.047.1.071.155.081.18.174.389.326.54 0 .2.1.299.199.398.397.596.795 1.191 1.292 1.688l.596.596.298.298.199.199.199.198 5.366 5.363 1.292-1.291 1.689-1.689c2.584-2.482 2.584-6.554 0-9.136l-12.62-12.612zm-1.292 79.347v-8.341a17.618 17.618 0 015.167-12.116l.199-.199 16.397-16.386c1.789 2.086 2.882 4.668 2.882 7.647 0 1.688-.397 3.277-.994 4.668-.596 1.29-1.391 2.482-2.385 3.475L264.344 86.4l-1.192 1.29zM245.86 67.828l-1.292 1.29v.1h7.95c1.193 0 2.385-.199 3.578-.397l2.087-.596c.099-.05.223-.1.347-.149h.001c.124-.05.248-.1.347-.149l2.385-1.192c.047-.023.1-.046.155-.071.179-.08.389-.174.541-.326.199 0 .298-.1.398-.198.596-.398 1.192-.795 1.689-1.291l.596-.596.298-.298.199-.199.199-.199 5.267-5.362-1.292-1.291-1.689-1.688c-2.485-2.582-6.559-2.582-9.143 0L245.86 67.828zm79.403 1.29h-8.348a17.642 17.642 0 01-12.124-5.163l-.199-.199-16.397-16.386c2.087-1.787 4.671-2.88 7.652-2.88 1.689 0 3.279.398 4.671.993 1.291.596 2.484 1.39 3.478 2.384l19.975 19.96 1.292 1.292zm-19.876 17.28l1.292 1.291h.099v-7.845c0-1.191-.198-2.383-.397-3.574v-.001l-.596-2.086c-.05-.099-.1-.223-.149-.347-.05-.124-.1-.248-.15-.348l-1.192-2.383c-.024-.047-.047-.1-.072-.155-.08-.179-.174-.388-.326-.54 0-.199-.099-.298-.198-.397-.398-.596-.795-1.192-1.292-1.689l-.597-.596-.298-.297-.198-.2-.199-.198-5.367-5.362-1.291 1.29-1.69 1.689c-2.584 2.483-2.584 6.554 0 9.136l12.621 12.612z" fill="#F28627"/></g><defs><clipPath id="clip0"><path fill="#fff" d="M0 0h463v158H0z"/></clipPath></defs></svg>